<svg xmlns="http://www.w3.org/2000/svg" width="876" height="171" viewBox="0 0 876 171">
  <path fill="#F76285" fill-rule="evenodd" d="M132.6,48.2 C133,51.8 125.4,55.8 120.4,55.8 C119,55.8 117,55.6 115.4,54.6 C114,53.8 111.4,53 106.6,53 C82,53 33.6,71.2 23.2,81.8 C25,82.4 27.6,83 30.8,83.6 C41.2,85.8 80.2,93.8 86.8,97.8 C90.2,99.8 99.4,108.6 100.2,116.4 C100.6,119.4 99.8,122.4 96.8,124.6 C90.4,129.8 56.6,144.8 48.2,144.8 C40.6,144.8 26,139 25.4,133.8 C25.2,132.6 25.8,131.4 26.4,130.4 C30.4,124 76.4,116.8 77.2,112.2 C77,112 76.6,112.2 76.2,112 C75,111.8 73,111.4 71.2,111 C55.2,106.8 17.4,103.4 5.4,91 C2.8,88.4 1.4,83.8 1,80.2 C0.4,75.2 1,68 5,64.2 C14.4,55.4 63.6,32 101,32 C112.8,32 123,35.6 131.2,45.2 C131.8,46 132.4,47 132.6,48.2 Z M250,60.2 C250.2,61.8 250,63.4 249.4,64.8 C241.8,83.6 194,105.4 164.6,112.4 L164.6,126.2 C164.8,132.6 164.8,139.8 164.2,142.2 C163.6,145.2 161,145.8 159.4,145.8 C154.4,145.8 143.4,139.2 141.4,132.4 C141,130.6 140.4,128.2 140,125 C137,100.6 139.2,29.8 146,28.6 C156.8,26.6 166.8,25.8 175.4,25.8 C203,25.8 219,34 227.6,38.4 C237.2,43.4 249,51.8 250,60.2 Z M224.8,56.8 C216.4,52 204,46.4 178.8,46.4 C174.8,46.4 170.6,46.6 166,46.8 C165.8,55 165.2,75.8 164.6,90.6 C183,84 223.4,65 224.8,56.8 Z M295.4,66.8 C297.6,84.2 295.4,127.8 289.8,132 C288.6,133 287,133.6 285.2,133.6 C280.2,133.6 274.2,125.2 272.2,121 C271,118.4 270.2,114.2 269.6,109.6 C267.6,92.4 267.2,59.2 269.6,54.6 C271.2,51.4 275.8,51 278.2,51 C282.2,51 290.6,52.4 293.4,58.4 C294.4,60.6 295,63.6 295.4,66.8 Z M403.2,142.6 C403.4,144.4 402.8,146 401.6,147.4 C396.8,153.6 363.2,168.6 353.4,170.8 C352.6,170.8 351.8,171 350.8,171 C345.8,171 339.8,168 333.4,163.4 C332.4,162.6 330.8,159.4 330.2,155.2 C327.4,132.2 324.8,37 329.2,19.2 C330.2,15 333.8,13.4 337.4,13.4 C342,13.4 347.2,16.2 350.4,20.8 C351,21.8 351.6,23.6 352,25.8 C354,41.6 349.6,110 353.4,141 C353.6,142.6 353.6,144 354,145.4 C364.8,142.4 381.6,136.8 386.4,135 C388,134.4 389.4,134 390.8,134 C394.8,134 402.4,136.4 403.2,142.6 Z M485.4,142.6 C485.6,144.4 485,146 483.8,147.4 C479,153.6 445.4,168.6 435.6,170.8 C434.8,170.8 434,171 433,171 C428,171 422,168 415.6,163.4 C414.6,162.6 413,159.4 412.4,155.2 C409.6,132.2 407,37 411.4,19.2 C412.4,15 416,13.4 419.6,13.4 C424.2,13.4 429.4,16.2 432.6,20.8 C433.2,21.8 433.8,23.6 434.2,25.8 C436.2,41.6 431.8,110 435.6,141 C435.8,142.6 435.8,144 436.2,145.4 C447,142.4 463.8,136.8 468.6,135 C470.2,134.4 471.6,134 473,134 C477,134 484.6,136.4 485.4,142.6 Z M515.4,66.8 C517.6,84.2 515.4,127.8 509.8,132 C508.6,133 507,133.6 505.2,133.6 C500.2,133.6 494.2,125.2 492.2,121 C491,118.4 490.2,114.2 489.6,109.6 C487.6,92.4 487.2,59.2 489.6,54.6 C491.2,51.4 495.8,51 498.2,51 C502.2,51 510.6,52.4 513.4,58.4 C514.4,60.6 515,63.6 515.4,66.8 Z M627.8,9.2 C628.2,12.8 626.2,14.8 624,16 C621.8,17 619.2,17.4 616.8,18 C608,19.8 599.2,21.2 590.4,22.8 C587.4,23.2 585.2,23.6 585,24.2 C582.6,28.6 580.8,126.8 580.4,140.8 C580.2,153.4 579.8,163 579.4,164.8 C579,167 575.8,169 571.6,169 C564,169 555.6,163.8 554.4,155.4 C553.6,147.6 554.8,114.2 556,83.2 C557,60.6 558,38.8 558.6,28.6 C551.4,30.4 543.8,32.8 536.2,32.6 C529.2,32.6 517.4,26.2 516.6,19.6 C515.6,11.4 529,13 533.8,12.2 C541,11 549,7.8 561.2,5.2 C573.8,2.4 590.8,0 615.4,0 C620.6,0 627,3.6 627.8,9.2 Z M652.4,132.8 C653.2,140.8 645.6,153 633.8,153.4 C624.2,153.8 618,143.4 617.2,137.2 C616.8,133.6 617.4,129 621.2,125.8 C624.4,122.4 630,121 634.8,121 C642.2,121 651.2,124.6 652.4,132.8 Z M776,51 C774.8,75.4 772.8,99.4 774.4,124 C775,131.6 763.2,134.6 758.6,134.6 C756.8,134.6 754.4,134.4 752.4,133.2 C747.4,130 733.6,116.4 720.2,103.2 C712,95 703.6,86.6 694.8,78.6 C695.8,98.8 696.6,132 695.8,140.6 C695.6,143.8 693.4,146.8 689.2,146.8 C681,146.8 671.8,135.6 671,129.4 C669.8,118.8 672.6,59.8 671.2,45.8 C670.8,40.4 677.6,37.2 682.8,37.2 C684.4,37.2 687,37.6 689.2,39 C691.8,41 707.4,56.4 722.6,71.6 C732.8,81.8 743.4,92.2 750.4,99.4 C749.6,79.6 748.4,37 750.4,24.8 C751,21 754.2,19.6 757.2,19.6 C766.2,19.6 774.8,28.8 776,36.8 C776.4,40 776.4,45 776,51 Z M876.2,82.8 C876.4,103.2 856.2,127.8 835,127.8 C815.4,127.8 801.4,112 799.4,96 C797,76.4 810.6,43 839,43 C842.6,43 848,43.4 852.2,47.2 C860.6,47.6 873,53.4 875.6,74.8 C875.8,77.2 876.2,80 876.2,82.8 Z M852,67 L852,66.8 C850.6,66.2 849,66 847.6,66 C833.8,66 818.8,87 820.4,99 C820.8,102.2 821.8,104 825.2,104 C831.8,104 841.8,97.6 845.2,92.4 C849.4,85.6 852.6,72.4 852,67 Z"/>
</svg>
